<?xml version="1.0" encoding="utf-8"?>
<!-- Generator: Adobe Illustrator 20.0.0, SVG Export Plug-In . SVG Version: 6.00 Build 0)  -->
<svg version="1.1" id="Layer_1" xmlns="http://www.w3.org/2000/svg" xmlns:xlink="http://www.w3.org/1999/xlink" x="0px" y="0px"
	 viewBox="0 0 612 792" style="enable-background:new 0 0 612 792;" xml:space="preserve">
<style type="text/css">
	.st0{fill:none;stroke:#000000;stroke-width:1.000000e-02;stroke-miterlimit:10;}
</style>
<g>
	<path class="st0" d="M-50,752.4c0-236,0-472,0-708c238,0,476,0,714,0c0,236,0,472,0,708C426,752.4,188,752.4-50,752.4z M95.7,438.8
		c2.7-0.9,4.3-1.3,5.8-1.9c11.6-4.5,23.2-9.2,34.8-13.6c6.3-2.4,11.8-5.6,16.6-10.5c10.6-10.6,21.7-20.7,32.6-31
		c10.3-9.7,20.6-19.4,30.7-29.3c1.6-1.5,3.4-4.2,3.1-6c-1-7.9-2.7-15.7-4.4-23.5c-0.3-1.4-1.8-3.2-3.1-3.6
		c-7.7-2.7-15.4-5.3-23.2-7.5c-1.7-0.5-4.7,0.4-5.9,1.8c-20.1,21.7-40.1,43.6-60.1,65.5c-3.7,4-8.5,7.7-10.4,12.5
		C106.2,406.8,101.4,422.4,95.7,438.8z M119.3,490.9c14.2,6.7,27.3,13,40.5,19.2c4,1.9,8.1,4.9,12.3,5c29.3,0.7,58.5,0.9,87.8,0.9
		c2.2,0,5-1.7,6.5-3.4c4.2-4.9,8.1-10.1,11.7-15.5c1-1.4,1.3-4,0.7-5.7c-2.4-6.9-5.5-13.5-8-20.4c-1.2-3.4-2.9-4.8-6.8-4.8
		c-25.4,0.6-50.9,1.1-76.3,1.2c-11.3,0-21.9,1.6-32.1,6.9C144.2,480.3,132.2,485.1,119.3,490.9z M117.6,462.4c2.8,0,4.5,0,6.1,0
		c12.2,0.1,24.3,0.3,36.5,0.1c4.7,0,9.8,0.2,14.1-1.4c28.1-10.8,55.9-22.2,84-33c6.2-2.4,9.7-5.3,9.3-12.3
		c-0.2-3.6,1.2-7.2,1.3-10.9c0-2.1-0.7-4.6-2-6.2c-4.6-5.7-9.7-10.9-14.5-16.5c-1.9-2.2-3.4-2.1-5.9-1c-25,11.2-50.1,22.3-75.1,33.5
		c-6,2.7-12.9,4.8-17.5,9.2C141.4,435.8,130.2,448.8,117.6,462.4z M109.2,266.6c-10.1,25.2-20.2,50.3-30.1,75.5
		c-1.2,3-2.1,6.3-2.4,9.6c-1.4,18.6-2.5,37.2-3.7,55.8c-0.2,3.2,0,6.4,0,10.8c10.9-11.3,20.8-21.6,30.6-32c4-4.2,8.7-8.2,11.1-13.2
		c5.5-11.1,9.9-22.9,14.7-34.4c7.6-18.1,15-36.2,22.7-54.3c1.2-2.9,0.7-4.6-1.4-6.5c-3.6-3.2-7.3-6.3-10.6-9.8
		c-2.3-2.5-4.7-3.1-8-2.9C124.9,265.8,117.4,266.1,109.2,266.6z M95.4,545.9c0.5,1.5,0.6,2.3,0.9,3c5.7,12.9,11.3,25.8,17.2,38.7
		c1.6,3.4,3.4,6.9,5.9,9.6c16.3,17.3,32.6,34.7,49.4,51.6c10.9,11,23.7,18.1,40,12.9c1.6-0.5,3.4-2,3.9-3.5c2.4-6,4.1-12.3,6.5-18.3
		c1.4-3.5,1.2-5.8-1.8-8.6c-18.7-18-37.1-36.3-55.8-54.2c-4.8-4.6-10.1-9.3-16-12.1c-9.8-4.7-20.4-7.9-30.7-11.8
		C108.7,550.7,102.4,548.4,95.4,545.9z M115.1,523.6c7.2,6.6,15,14.1,23.2,21.1c4.9,4.2,9.8,8.7,15.6,11.3
		c29,13.2,58.4,25.7,87.4,39c6.4,2.9,10.7,2.8,16.4-1.4c10.4-7.7,10.7-7.3,9.9-20.4c-0.1-2.3-0.4-4.7-0.2-7c0.4-3.8-1.1-5.5-4.7-6.8
		c-26-10-52-20.3-78-30.4c-5.2-2-10.6-4.9-16-5.1C150.8,523.2,132.8,523.6,115.1,523.6z M22.1,437.3c0,2.7-0.2,4.2,0,5.6
		c5.3,32.7,15.3,63.9,31.7,92.9c3.1,5.4,8.1,9.7,12.9,15.4c0-7.6,0-13.8,0-20.4c6.8,2.3,13.3,4.5,20.6,7c-2.3-7.4-4.4-14-6.6-20.9
		c6.6-0.6,12.7-1.1,19.8-1.7c-4.9-5.3-9.2-9.8-13.7-14.6c6-2.9,11.4-5.5,17.7-8.5c-7-2.7-12.8-4.9-19.3-7.4
		c5.7-5.4,10.8-10.3,16-15.3c-0.1-0.4-0.3-0.8-0.4-1.2c-6.9,0-13.7,0-21.3,0c2.7-7,5.1-13,7.9-20.1c-7,2.8-12.9,5.1-19.7,7.9
		c0-7.9,0-14.9,0-22c-0.4-0.1-0.8-0.3-1.3-0.4c-4.9,5.4-9.8,10.7-15.2,16.6c-2.1-5.3-3.8-9.7-5.6-14.3c-3,5.7-5.9,11.2-9,17.1
		C31.8,447.7,27.4,443,22.1,437.3z M55.6,258.2c-0.7,1.2-1.4,2.1-1.9,3.2c-15.1,27.6-25,57-30.8,88c-1.5,7.8-0.6,14.7,3.2,21.4
		c0.7,1.3,1.3,2.7,2,4c5.8,12.6,11.6,25.2,17.7,38.5c0.9-1.6,1.5-2.6,1.9-3.6c6.4-15.3,12.9-30.6,19.2-46c0.7-1.7,1.1-3.5,1.1-5.3
		c0.1-30,0.1-60,0-89.9c0-1.3-0.5-3.2-1.5-3.8C63,262.3,59.4,260.4,55.6,258.2z M442,143.6c-8.1,18.8-15.4,36.6-23.6,54
		c-3.5,7.4-5.1,13.3,2.1,19c0.9,0.7,1.5,1.8,2,2.8c3.7,6.6,9,9.6,16.8,8c2.9-0.6,6-0.5,9,0c4.4,0.6,6.3-1.5,7.6-5.2
		c1.7-4.9,3.6-9.6,5.6-14.4c5.4-13.6,10.9-27.1,16.6-41.5C466.1,158.8,454.3,151.4,442,143.6z M402.2,385.8
		c-4.7,11.4-9.3,22.2-13.6,33.1c-0.5,1.1,0.1,2.9,0.7,4.2c4.9,10.7,9.9,21.4,15.1,32c0.7,1.5,3.1,3,4.7,3.1
		c6.1,0.4,12.3,0.3,18.5,0.1c1.8-0.1,3.9-0.9,5.2-2.1c5.7-5.2,10.9-10.7,16.6-15.9c2.7-2.4,2.6-4.5,1.1-7.4
		c-4.2-8.3-8.2-16.7-12.4-25c-1.3-2.5-2.4-5.7-4.6-6.8C423.4,395.7,413,391,402.2,385.8z M201.5,188c-4.7,11.4-9.3,22-13.5,32.8
		c-0.5,1.4,0.1,3.5,0.8,5c3.7,8.3,7.6,16.6,11.6,24.8c4.6,9.7,4.6,9.7,15.7,9.7c3.3,0,6.7,0.3,10-0.1c2.4-0.3,5.2-1.1,7-2.7
		c5.6-5,10.6-10.6,16.1-15.6c2.4-2.2,2.1-3.9,0.8-6.4c-4.9-9.8-9.6-19.7-14.5-29.5c-0.6-1.2-1.7-2.5-2.9-3.1
		C222.4,198,212.3,193.2,201.5,188z M166.9,188.6c-9.4,4.6-18.4,8.8-27.2,13.3c-1.6,0.8-2.9,2.7-3.6,4.4c-4.5,10.7-8.8,21.5-13,32.3
		c-0.5,1.4,0,3.9,1,5c3.6,4.1,7.4,8.2,11.5,11.7c2.2,1.9,5.2,3.3,8.1,3.9c6,1.2,12.1,1.8,18.2,2.3c1.4,0.1,3.8-1.1,4.3-2.3
		c3.2-7.3,5.6-14.9,9.1-22.1c3.9-8.1,4.4-15.7,0.5-24C172.3,205.4,169.9,197,166.9,188.6z M367.5,386.4c-9.8,4.7-18.9,9.1-27.9,13.5
		c-1,0.5-1.9,1.4-2.3,2.4c-4.7,11.5-9.3,23.1-13.7,34.7c-0.5,1.2,0.4,3.5,1.4,4.6c3.8,4.2,7.8,8.2,11.9,12.1c1.5,1.4,3.4,2.7,5.3,3
		c6.9,1.2,13.8,2.1,20.7,2.6c1.4,0.1,3.7-1.4,4.3-2.7c4-9.5,7.8-19,11.4-28.7c0.9-2.5,1.6-5.7,0.8-8.1
		C375.8,408.9,371.7,398,367.5,386.4z M399.9,307c1.1-0.3,1.9-0.5,2.6-0.8c9.5-4.3,19.1-8.5,28.6-12.9c1.3-0.6,2.4-2.2,3.1-3.6
		c4.3-9.3,8.6-18.7,12.6-28.2c0.5-1.3,0.2-3.6-0.7-4.7c-4.4-5.4-9.1-10.6-13.9-15.6c-1-1-2.9-1.4-4.5-1.5
		c-7.3-0.6-14.6-0.7-21.8-1.6c-3.1-0.4-4.1,0.5-5.1,3.1c-3.9,10.4-8,20.7-12,31.1c-0.4,1-0.8,2.4-0.5,3.3
		C392,286,395.9,296.4,399.9,307z M369.2,307.3c4.1-10.2,7.9-19.7,11.6-29.3c0.5-1.3,0-3.3-0.5-4.7c-4-10.5-8-21.1-12.3-31.5
		c-0.6-1.4-2.6-2.9-4.1-3c-7.3-0.4-14.6-0.4-21.9-0.3c-1.5,0-3.5,0.4-4.4,1.4c-4.5,5.1-8.8,10.3-13,15.7c-0.8,1-0.9,3.1-0.5,4.4
		c3.2,9.8,6.5,19.5,9.9,29.2c0.4,1.3,1.4,2.7,2.5,3.3C347.1,297.4,357.8,302.2,369.2,307.3z M400.4,589.5c10.9-4.9,21-9.4,31.1-14.1
		c1.4-0.7,2.6-2.4,3.4-3.9c4.2-9,8.3-18.1,12.1-27.3c0.6-1.5,0.2-4.2-0.9-5.5c-4.2-5.2-8.7-10.1-13.3-14.9c-1-1.1-2.8-1.8-4.3-2
		c-7.3-0.6-14.6-0.7-21.9-1.4c-3.4-0.4-4.7,0.9-5.7,3.8c-3.7,10-7.7,19.8-11.4,29.8c-0.5,1.3-0.9,3.1-0.5,4.3
		C392.6,568.5,396.5,578.8,400.4,589.5z M369.6,589.6c4.1-10.4,8.1-20,11.9-29.7c0.4-0.9,0.1-2.3-0.3-3.3
		c-4.1-10.9-8.3-21.7-12.6-32.5c-0.5-1.3-2.5-2.8-3.8-2.9c-7.5-0.5-14.9-0.7-22.4-0.7c-1.6,0-3.7,0.7-4.7,1.9
		c-4.1,4.5-8.2,9.2-11.8,14.2c-1.2,1.6-1.7,4.6-1.1,6.6c2.8,9.4,6.1,18.6,9.4,27.8c0.5,1.4,1.6,3,2.8,3.6
		C347.6,579.7,358.4,584.4,369.6,589.6z M428.7,612.8c9.9,4.7,19.3,9.3,28.8,13.7c1.1,0.5,2.9,0.4,4.1-0.1
		c9.6-4.1,19.2-8.2,28.7-12.6c1.4-0.7,2.9-2.8,3-4.4c0.5-7,0.6-14,0.5-21c0-1.6-0.8-3.6-1.9-4.8c-4.8-5.3-9.8-10.4-15-15.3
		c-1.2-1.1-3.9-1.6-5.4-1c-8.4,3.1-16.7,6.6-24.9,10.2c-1.7,0.7-3.5,2.1-4.2,3.7C437.7,591.4,433.4,601.8,428.7,612.8z M474.9,413.4
		c5.7-6.8,11.3-13.3,16.8-20c0.8-0.9,1.2-2.4,1.3-3.6c0.1-6.3,0.2-12.7,0-19c0-1.3-1.1-3.2-2.2-3.7c-10.1-4.7-20.2-9.3-30.4-13.7
		c-1.6-0.7-3.9-0.7-5.6-0.1c-8.5,3-16.8,6.3-25.2,9.4c-2.9,1.1-2.7,2.6-1.7,5c3.9,9.2,7.6,18.4,11.6,27.5c0.7,1.6,2.5,3.1,4.2,3.9
		C453.8,404,464.1,408.5,474.9,413.4z M428.2,330.6c10,4.8,19.5,9.4,29.1,13.8c1,0.5,2.6,0.3,3.7-0.2c9.8-4.2,19.5-8.4,29.1-12.8
		c1.3-0.6,2.7-2.5,2.7-3.9c0.3-7.1,0.4-14.3,0.3-21.4c0-1.6-0.8-3.6-1.9-4.8c-5.7-5.8-11.6-11.3-17.9-17.4
		c-9.1,3.7-18.9,7.7-28.7,11.8c-1.2,0.5-2.4,1.8-2.9,3.1C437.3,309.1,432.9,319.5,428.2,330.6z M423.6,135.3
		c-16.1-7.1-31.9-12.6-48.2-16.3c-1-0.2-2.6,0.5-3.4,1.3c-7.8,7.5-15.5,15-23.1,22.7c-0.9,0.9-1.3,3.3-0.9,4.6
		c2.2,6.1,5,11.9,7.2,18c1.6,4.3,4.1,6.8,8.7,7.6c5.7,1.1,11.2,2.9,16.9,4.1c1.3,0.3,3.4,0,4.2-0.9
		C397.8,163,410.4,149.4,423.6,135.3z M274.3,215.6c5.6-6.7,11.2-13.3,16.7-20c0.8-1,1.2-2.7,1.2-4.1c0.1-6,0.2-12-0.1-18
		c-0.1-1.6-1.4-3.8-2.8-4.4c-9.9-4.7-19.9-9.1-29.9-13.6c-1.1-0.5-2.7-1.1-3.7-0.7c-9.9,3.6-19.8,7.5-30.1,11.4
		c4.6,11.1,9,21.6,13.6,32.1c0.5,1.1,1.7,2.1,2.8,2.7C252.7,206,263.4,210.7,274.3,215.6z M417.2,616c-10.7-0.9-16.2-7.8-18.9-17.9
		c-8.5,4.1-16.4,8.2-25.4,0.9c-0.6,13-11,13.1-19,17.3c5.4,8.5,8,17.2,0.1,26.4c10.3,2.2,16.8,7.1,18.4,16.6c5-1.5,9.4-3.9,13.5-3.6
		c4.3,0.3,8.5,3.2,13.7,5.3c1.6-10.9,8-16.7,18.4-18.1c-2.1-4.9-5.1-9-5.2-13.1C412.8,625.7,415.4,621.3,417.2,616z M353.3,334.1
		c5.8,8.6,7.7,17.2,0.5,26.5c10.3,2.2,16.6,7.4,18.6,17.8c9.3-8.2,17.7-3.9,26.9,0.7c1.3-11.4,8.3-16.6,19.4-18.8
		c-8.1-8.9-6.8-17.4-1.4-26.7c-11.8-0.8-16.8-8-19.5-17.5c-4.6,1.8-8.3,4.2-12.3,4.6c-4,0.4-8.2-1.3-13-2.2
		C371.7,329.3,361.8,330.1,353.3,334.1z M299.3,233c1,0.3,1.3,0.5,1.6,0.5c6.6-0.2,13.4-1.3,19.9-0.6c10.9,1.3,18.1-3.1,25.1-11.1
		c10.1-11.6,10.7-11.1,8.2-26.5c-0.4-2.6-0.4-5.4-1.4-7.8c-0.6-1.7-2.2-3.7-3.8-4.2c-8.2-2.7-16.5-5-24.9-7.2
		c-1.4-0.4-3.6,0.3-4.7,1.3c-5.8,5.3-11.4,10.7-16.9,16.3c-1.4,1.4-3,3.5-3.1,5.4C299.2,210.3,299.3,221.5,299.3,233z M343.4,364.6
		c-10.6-4.6-20.7-9.2-31-13.5c-1-0.4-2.6-0.1-3.7,0.4c-9.6,4.2-19.2,8.4-28.6,12.9c-1.4,0.7-2.8,2.7-3,4.2
		c-0.9,5.2-1.6,10.5-1.7,15.8c0,2.9,0.9,6.2,2.5,8.5c3.2,4.6,7.1,8.8,10.9,12.9c0.9,0.9,3.3,1.4,4.6,0.9c11.5-4.2,23-8.6,34.4-13.1
		c1.4-0.5,2.9-1.7,3.5-3C335.4,382.3,339.2,373.8,343.4,364.6z M343.9,646.9c-10.6-4.7-20.8-9.1-31-13.5c-1-0.4-2.6-0.1-3.7,0.4
		c-7.2,3.1-14.1,6.7-21.4,9.4c-7.4,2.7-12.7,6.1-10.8,15.1c0.1,0.3-0.1,0.7-0.2,1c-2,8-0.9,14.9,5.6,21.1c5.8,5.5,12.5,8.1,20.3,5.3
		c8.4-3,16.8-6.2,25.2-9.4c1.3-0.5,3-1.2,3.6-2.3C335.6,665.1,339.6,656.2,343.9,646.9z M344.1,328.4c-4.4-9.4-8.5-18.5-12.9-27.4
		c-0.6-1.3-2.4-2.1-3.9-2.8c-8.6-4-17.4-7.5-25.7-12c-4.8-2.6-7.5-1.5-10.9,2c-13.7,14.1-13.8,14-13.7,33.5c0,3.1,0.8,4.7,3.8,5.9
		c10,3.9,19.9,8.2,29.9,12.2c1.4,0.5,3.3,0.6,4.6,0.1C324.7,336.3,334.1,332.5,344.1,328.4z M344.6,610.7
		c-4.5-9.5-8.8-18.8-13.3-28.1c-0.4-0.8-1.5-1.3-2.3-1.7c-10.1-4.7-20.2-9.4-30.3-13.9c-1.1-0.5-3.3-0.1-4.3,0.7
		c-16.2,13.5-17.1,15.6-16.9,36.1c0,0.2,0,0.3,0,0.5c-0.3,2.6,0.6,4.2,3.3,5.3c10.3,4.1,20.5,8.5,30.8,12.7c1,0.4,2.3,0.6,3.2,0.2
		C324.6,618.7,334.3,614.8,344.6,610.7z M363.9,491.1c-6.9-7.5-13.6-14.9-20.6-22.1c-1-1-2.9-1.5-4.5-1.5c-9.5-0.1-19,0-28.5,0.2
		c-1.3,0-3.3,0.5-3.9,1.4c-3.9,6.2-9,12.2-10.6,19c-1,4.3,3.4,10,5.5,14.9c0.7,1.7,1.8,3.2,2.6,4.8c1.8,3.8,4.8,5.3,8.8,5.2
		c8.2-0.1,16.3,0.1,24.5-0.1c1.5,0,3.4-0.5,4.5-1.5C349.7,504.5,357.3,497.3,363.9,491.1z M524.5,332.4c7.4-7.2,14.4-13.9,21.2-20.7
		c1-1,1.5-3,1.5-4.5c0.1-9.6,0.1-19.3,0-29c0-1.3-0.4-3.3-1.3-3.9c-6.2-3.8-12.3-8.8-19.1-10.3c-4.4-1-10,3.4-14.9,5.4
		c-1.8,0.8-4,1.4-5.2,2.8c-1.9,2.2-4.2,4.9-4.4,7.6c-0.6,8.5-0.3,17-0.1,25.4c0,1.5,0.6,3.3,1.6,4.4
		C510.6,317.4,517.7,324.9,524.5,332.4z M270.1,265.1c-7.7,0-14.7,0.6-21.6-0.1c-10.3-1-18.9,1.1-25.4,9.8c-1.9,2.6-5,4.4-7.2,6.9
		c-0.9,1-1.7,2.9-1.4,4.2c1.7,8.3,3.5,16.6,5.6,24.7c0.4,1.6,2.3,3.6,3.9,4c7.9,1.8,16,3.1,24,4.5c0.9,0.2,2.2,0,2.7-0.6
		c5.8-6.9,11.4-13.8,17-20.8c0.3-0.3,0.2-1,0.3-1.5C268.6,286.1,269.3,276,270.1,265.1z M557.4,492.3c-8.5-4.9-12.3-12.2-9.7-22.9
		c-11.9,2.9-15.7-7-22.6-12.2c-6.1,5.8-10.1,15-22.2,11.4c4.8,11.5-4.5,15.7-9,22.2c5.3,6.5,13.5,11.2,9.1,22.5
		c12.6-4.5,15.7,6.5,22.3,10.9c6.9-5.3,10.9-14.8,22.7-12.3C544.1,501.4,553.4,498.6,557.4,492.3z M469.4,467.7
		c-11.9,0-22.9-0.1-33.9,0.1c-1.3,0-2.9,0.8-3.8,1.7c-7.1,7.4-14.1,15-21.6,22.9c7.6,6.3,14.9,12.5,22.5,18.4
		c1.8,1.4,4.4,2.3,6.6,2.3c7.1,0.1,14.3-0.4,21.4-0.6c2.7-0.1,5.5,0,9.3,0c-4.1-11.9,4.1-16.3,11-21.1
		C476.6,483.4,466.8,478.7,469.4,467.7z M522.7,377.9c-4.5,5.4-8.1,10.9-12.9,15.2c-7,6.4-8.5,13.9-7.6,22.8
		c0.7,7,0.1,14.1,0.1,22.3c12-4.4,16.6,3.2,21.4,10.3c7.8-4.4,12.4-13.9,23.4-11.1c0-12.2,0.1-23.6-0.1-35.1c0-1.1-0.9-2.5-1.8-3.3
		C538,392.1,530.6,385.2,522.7,377.9z M594.9,385.7c-0.4-4.8-1.2-14-2.1-23.3c-0.4-4-5.8-7.4-9.5-5.8c-9.9,4.3-19.8,8.7-29.6,13.3
		c-1.3,0.6-2.4,2.6-2.6,4.1c-0.8,5.2-1.3,10.5-1.8,15.8c-0.3,3-0.2,5.6,2.3,8.1c4,4,7.2,8.7,11,12.8c1,1.1,3.5,1.7,4.9,1.3
		c5.7-1.8,11.2-4.1,16.8-6.3C595.1,401.5,595.1,401.4,594.9,385.7z M216.9,136.9c-4.2-1.7-7.5-2.5-10.3-4.2
		c-4.1-2.6-7.7-1.5-11.5,0.3c-10.1,5-20.1,10.4-30.4,14.9c-6.7,2.9-8.6,8.5-10.7,15c9.3,1.9,15.9,6.7,17.5,17.8
		c9.6-8,18.1-4.1,26.3,0.1c2.4-4.9,3.5-9.9,6.6-12.9c3.1-2.9,8.2-3.7,13-5.6C211.2,154,209.7,145.7,216.9,136.9z M523.5,533.6
		c-7.8,4.5-12.5,14.1-23.5,11.5c0,12.1,0,23.5,0,35c0,0.6,0.3,1.3,0.8,1.7c5.1,4.8,10.3,9.6,15.9,14.9c7.4-9.1,14.1-17.8,21.3-26
		c5.5-6.3,7.9-13.1,6.9-21.4c-0.3-2.7-0.8-4.7-4-4.1c-6.8,1.4-11-1.9-14.2-7.3C526,536.5,524.8,535.3,523.5,533.6z M228.3,133.2
		c9.4,4.5,18.8,9,28.3,13.4c1,0.5,2.6,0.3,3.7-0.1c9.6-4.1,19.2-8.2,28.8-12.5c1.3-0.6,3.2-2,3.2-3.2c0.3-6.4,0.2-12.8,0.2-20.8
		c-16.4,2.6-32.3,5.4-48.4,7.4c-9.3,1.1-14.2,5.8-15.8,14.6C228.1,132.1,228.2,132.3,228.3,133.2z M546.4,238.7
		c-12.4-18.6-26.5-35.3-42.9-50.4c-0.4,0.8-0.7,1-0.7,1.3c-0.2,15.8-0.5,31.6-0.6,47.4c0,1.1,1.2,2.6,2.3,3.3
		c6.3,4,12.7,7.8,19.2,11.5c1.2,0.7,3.4,1,4.4,0.4C534.3,247.9,540.2,243.3,546.4,238.7z M551.2,317.6c0,3.8,0.3,6.2-0.1,8.4
		c-0.6,4,1.2,5.9,4.8,7.3c9.8,3.8,19.4,8,29.1,11.9c3.6,1.5,4.9,0.6,4.3-3.2c-0.6-3.6-1.2-7.2-2.3-10.7
		c-3.8-12.5-7.6-25.1-11.8-37.5c-1.9-5.5-4.7-5.8-8.6-1.7c-2.5,2.6-4.8,5.7-7.6,7.9C552.6,304.9,549.3,310.9,551.2,317.6z
		 M218.2,673.5c16.2,3.7,32.5,7.5,48.9,11.3c0.5-0.5,1-1.1,1.5-1.6c-1-2.5-1.4-5.5-3.1-7.5c-4.2-5.3-8.9-10.3-13.6-15.2
		c-1-1.1-3.3-1.8-4.7-1.5c-7.7,1.4-15.2,3.6-22.9,4.8C218.8,664.6,217.6,667.6,218.2,673.5z M89.6,207.9c0.4,0.6,0.9,1.2,1.3,1.9
		c12.5-4.7,25.1-9.5,37.6-14.3c0.8-0.3,1.7-1.1,2.1-1.9c4-8.7,8-17.5,12.7-27.9c-3.3,0.5-5.6,0.2-7.1,1.2c-3.5,2.2-6.9,4.7-9.9,7.5
		C113.9,185.5,101.8,196.7,89.6,207.9z M273.5,260c8.5,0,16.4,0,24.2,0c0-8,0-15.6,0-23.3c-8.2,0-16,0-24.2,0
		C273.5,244.6,273.5,252.2,273.5,260z M466.1,639.2c-0.1-0.6-0.2-1.1-0.3-1.7c-2.9-0.9-6.3-3.2-8.7-2.5
		c-10.2,3.2-20.1,7.4-30.4,11.3c1.9,4.3,3.6,8,5.4,12.3C443.8,652,454.9,645.6,466.1,639.2z M576.5,470.5c4,11.3-3.4,16.2-11,21
		c3.4,4.1,6.3,7.8,10.1,12.3c3.7-11.7,7.1-22.3,10.6-33.3C582.7,470.5,580.3,470.5,576.5,470.5z M337.9,683.3c0.2,0.7,0.5,1.3,0.7,2
		c11-1.9,22-3.7,33.4-5.6c-1.6-4.1-2.8-7.3-4.2-10.9C357.6,673.7,347.7,678.5,337.9,683.3z M115.8,615.7c0.7-0.6,1.4-1.3,2-1.9
		c-10.2-18-28.2-28.7-41.2-44.1c-0.6,0.5-1.1,1.1-1.7,1.6C88.6,586,102.2,600.9,115.8,615.7z M315.7,110.5c5.5,5.6,6,5.6,11.6,0.9
		C323.6,111.1,320.3,110.9,315.7,110.5z"/>
	<path class="st0" d="M95.7,438.8c5.6-16.4,10.5-32,16.5-47c1.9-4.8,6.7-8.5,10.4-12.5c20-21.9,39.9-43.8,60.1-65.5
		c1.2-1.3,4.2-2.3,5.9-1.8c7.8,2.1,15.6,4.7,23.2,7.5c1.3,0.5,2.8,2.2,3.1,3.6c1.7,7.8,3.4,15.6,4.4,23.5c0.2,1.9-1.5,4.5-3.1,6
		c-10.1,9.9-20.4,19.6-30.7,29.3c-10.9,10.3-22,20.4-32.6,31c-4.9,4.9-10.3,8.1-16.6,10.5c-11.7,4.4-23.2,9.1-34.8,13.6
		C100,437.5,98.4,437.9,95.7,438.8z"/>
	<path class="st0" d="M119.3,490.9c12.9-5.8,24.9-10.6,36.4-16.6c10.2-5.3,20.8-6.8,32.1-6.9c25.4-0.1,50.9-0.6,76.3-1.2
		c3.9-0.1,5.6,1.3,6.8,4.8c2.5,6.9,5.6,13.5,8,20.4c0.6,1.6,0.3,4.2-0.7,5.7c-3.6,5.4-7.5,10.6-11.7,15.5c-1.5,1.8-4.3,3.5-6.5,3.4
		c-29.3-0.1-58.6-0.2-87.8-0.9c-4.1-0.1-8.3-3.1-12.3-5C146.7,503.9,133.5,497.6,119.3,490.9z"/>
	<path class="st0" d="M117.6,462.4c12.6-13.6,23.9-26.5,36.2-38.4c4.5-4.4,11.4-6.5,17.5-9.2c25-11.2,50.1-22.3,75.1-33.5
		c2.5-1.1,4.1-1.2,5.9,1c4.7,5.6,9.8,10.9,14.5,16.5c1.3,1.6,2,4.1,2,6.2c0,3.6-1.5,7.3-1.3,10.9c0.4,7-3,9.9-9.3,12.3
		c-28.1,10.7-55.9,22.2-84,33c-4.3,1.6-9.4,1.4-14.1,1.4c-12.2,0.1-24.3-0.1-36.5-0.1C122,462.4,120.4,462.4,117.6,462.4z"/>
	<path class="st0" d="M109.2,266.6c8.2-0.5,15.6-0.8,23.1-1.4c3.2-0.3,5.6,0.3,8,2.9c3.3,3.5,7,6.6,10.6,9.8
		c2.1,1.9,2.6,3.6,1.4,6.5c-7.7,18-15.2,36.2-22.7,54.3c-4.8,11.5-9.2,23.2-14.7,34.4c-2.5,5-7.2,9-11.1,13.2
		c-9.8,10.4-19.8,20.7-30.6,32c0-4.4-0.2-7.6,0-10.8c1.1-18.6,2.3-37.2,3.7-55.8c0.2-3.2,1.2-6.5,2.4-9.6
		C89.1,317,99.2,291.8,109.2,266.6z"/>
	<path class="st0" d="M95.4,545.9c7,2.6,13.3,4.9,19.6,7.2c10.3,3.8,20.8,7.1,30.7,11.8c5.9,2.8,11.2,7.5,16,12.1
		c18.7,17.9,37.1,36.3,55.8,54.2c2.9,2.8,3.2,5.1,1.8,8.6c-2.4,6-4.1,12.3-6.5,18.3c-0.6,1.5-2.4,3-3.9,3.5
		c-16.4,5.3-29.1-1.8-40-12.9c-16.8-16.9-33.1-34.2-49.4-51.6c-2.5-2.7-4.3-6.2-5.9-9.6c-5.9-12.8-11.5-25.8-17.2-38.7
		C96.1,548.1,95.9,547.4,95.4,545.9z"/>
	<path class="st0" d="M115.1,523.6c17.7,0,35.7-0.4,53.6,0.2c5.4,0.2,10.8,3,16,5.1c26,10.1,51.9,20.4,78,30.4
		c3.6,1.4,5.1,3.1,4.7,6.8c-0.2,2.3,0,4.7,0.2,7c0.8,13.1,0.5,12.7-9.9,20.4c-5.7,4.2-10,4.3-16.4,1.4c-29-13.3-58.4-25.7-87.4-39
		c-5.7-2.6-10.7-7.1-15.6-11.3C130.1,537.6,122.3,530.2,115.1,523.6z"/>
	<path class="st0" d="M22.1,437.3c5.2,5.7,9.6,10.4,14.5,15.7c3.1-5.9,6-11.4,9-17.1c1.8,4.6,3.5,9,5.6,14.3
		c5.4-5.9,10.3-11.2,15.2-16.6c0.4,0.1,0.8,0.3,1.3,0.4c0,7.1,0,14.1,0,22c6.8-2.7,12.7-5.1,19.7-7.9c-2.8,7.1-5.2,13.1-7.9,20.1
		c7.6,0,14.5,0,21.3,0c0.1,0.4,0.3,0.8,0.4,1.2c-5.2,4.9-10.4,9.9-16,15.3c6.5,2.5,12.3,4.7,19.3,7.4c-6.3,3-11.7,5.6-17.7,8.5
		c4.5,4.8,8.7,9.3,13.7,14.6c-7.1,0.6-13.2,1.1-19.8,1.7c2.2,6.9,4.3,13.5,6.6,20.9c-7.3-2.5-13.8-4.6-20.6-7c0,6.7,0,12.8,0,20.4
		c-4.8-5.6-9.8-9.9-12.9-15.4c-16.4-28.9-26.3-60.1-31.7-92.9C21.9,441.5,22.1,440,22.1,437.3z"/>
	<path class="st0" d="M55.6,258.2c3.7,2.2,7.4,4.1,10.8,6.4c0.9,0.7,1.5,2.5,1.5,3.8c0.1,30,0.1,60,0,89.9c0,1.8-0.4,3.7-1.1,5.3
		c-6.4,15.4-12.8,30.7-19.2,46c-0.4,1-1,2-1.9,3.6C39.6,400,33.8,387.4,28,374.8c-0.6-1.4-1.2-2.7-2-4c-3.7-6.7-4.6-13.6-3.2-21.4
		c5.8-30.9,15.7-60.4,30.8-88C54.3,260.4,54.9,259.4,55.6,258.2z"/>
	<path class="st0" d="M442,143.6c12.4,7.8,24.1,15.2,36.1,22.8c-5.8,14.4-11.2,28-16.6,41.5c-1.9,4.8-3.9,9.5-5.6,14.4
		c-1.3,3.8-3.2,5.8-7.6,5.2c-2.9-0.4-6.1-0.5-9,0c-7.8,1.5-13.1-1.4-16.8-8c-0.6-1-1.1-2.1-2-2.8c-7.2-5.7-5.7-11.6-2.1-19
		C426.6,180.2,433.9,162.3,442,143.6z"/>
	<path class="st0" d="M402.2,385.8c10.8,5.2,21.2,9.9,31.3,15.3c2.1,1.1,3.3,4.4,4.6,6.8c4.2,8.3,8.2,16.7,12.4,25
		c1.5,2.9,1.5,5-1.1,7.4c-5.7,5.1-11,10.7-16.6,15.9c-1.3,1.2-3.4,2-5.2,2.1c-6.2,0.2-12.3,0.3-18.5-0.1c-1.7-0.1-4-1.6-4.7-3.1
		c-5.2-10.6-10.2-21.3-15.1-32c-0.6-1.3-1.1-3-0.7-4.2C392.9,408,397.5,397.1,402.2,385.8z"/>
	<path class="st0" d="M201.5,188c10.7,5.2,20.9,10,31,15c1.2,0.6,2.3,1.9,2.9,3.1c4.9,9.8,9.6,19.7,14.5,29.5
		c1.3,2.5,1.6,4.2-0.8,6.4c-5.5,5-10.6,10.6-16.1,15.6c-1.8,1.6-4.5,2.4-7,2.7c-3.3,0.4-6.6,0.1-10,0.1c-11.1,0-11.1,0-15.7-9.7
		c-3.9-8.2-7.8-16.5-11.6-24.8c-0.7-1.5-1.3-3.6-0.8-5C192.3,210,196.8,199.4,201.5,188z"/>
	<path class="st0" d="M166.9,188.6c3,8.4,5.4,16.7,9,24.5c3.8,8.4,3.4,15.9-0.5,24c-3.5,7.1-5.9,14.8-9.1,22.1
		c-0.5,1.2-2.9,2.4-4.3,2.3c-6.1-0.5-12.2-1.1-18.2-2.3c-2.9-0.6-5.9-2-8.1-3.9c-4.2-3.5-7.9-7.6-11.5-11.7c-1-1.1-1.5-3.6-1-5
		c4.1-10.9,8.5-21.6,13-32.3c0.7-1.7,2.1-3.6,3.6-4.4C148.5,197.4,157.5,193.2,166.9,188.6z"/>
	<path class="st0" d="M367.5,386.4c4.1,11.6,8.3,22.4,11.8,33.4c0.8,2.4,0.1,5.6-0.8,8.1c-3.6,9.6-7.4,19.2-11.4,28.7
		c-0.6,1.3-2.9,2.8-4.3,2.7c-6.9-0.6-13.9-1.5-20.7-2.6c-1.9-0.3-3.9-1.7-5.3-3c-4.1-3.9-8.1-7.9-11.9-12.1c-1-1.1-1.9-3.4-1.4-4.6
		c4.4-11.6,9-23.2,13.7-34.7c0.4-1,1.4-1.9,2.3-2.4C348.6,395.5,357.8,391.1,367.5,386.4z"/>
	<path class="st0" d="M399.9,307c-3.9-10.6-7.8-21-11.6-31.4c-0.3-0.9,0.1-2.3,0.5-3.3c4-10.4,8.1-20.7,12-31.1c1-2.5,2-3.5,5.1-3.1
		c7.2,0.9,14.6,1,21.8,1.6c1.5,0.1,3.5,0.5,4.5,1.5c4.8,5,9.5,10.2,13.9,15.6c0.9,1.1,1.2,3.4,0.7,4.7c-4,9.5-8.3,18.8-12.6,28.2
		c-0.6,1.4-1.7,3-3.1,3.6c-9.5,4.4-19,8.7-28.6,12.9C401.8,306.5,401,306.6,399.9,307z"/>
	<path class="st0" d="M369.2,307.3c-11.4-5.1-22.1-9.9-32.8-14.9c-1.1-0.5-2.1-2-2.5-3.3c-3.4-9.7-6.8-19.4-9.9-29.2
		c-0.4-1.3-0.3-3.4,0.5-4.4c4.1-5.4,8.5-10.7,13-15.7c0.9-1,2.9-1.4,4.4-1.4c7.3-0.1,14.6,0,21.9,0.3c1.5,0.1,3.5,1.6,4.1,3
		c4.3,10.4,8.3,21,12.3,31.5c0.6,1.5,1,3.4,0.5,4.7C377.2,287.6,373.3,297.1,369.2,307.3z"/>
	<path class="st0" d="M400.4,589.5c-3.9-10.8-7.8-21-11.4-31.3c-0.4-1.2,0-3,0.5-4.3c3.8-9.9,7.7-19.8,11.4-29.8
		c1.1-2.9,2.3-4.2,5.7-3.8c7.3,0.8,14.6,0.8,21.9,1.4c1.5,0.1,3.2,0.9,4.3,2c4.6,4.8,9.1,9.7,13.3,14.9c1,1.3,1.5,4,0.9,5.5
		c-3.8,9.2-7.9,18.3-12.1,27.3c-0.7,1.5-1.9,3.3-3.4,3.9C421.4,580.1,411.3,584.6,400.4,589.5z"/>
	<path class="st0" d="M369.6,589.6c-11.3-5.1-22-9.9-32.7-14.9c-1.3-0.6-2.3-2.2-2.8-3.6c-3.3-9.2-6.5-18.4-9.4-27.8
		c-0.6-2-0.1-5,1.1-6.6c3.6-5,7.6-9.6,11.8-14.2c1-1.1,3.1-1.9,4.7-1.9c7.5,0,15,0.2,22.4,0.7c1.4,0.1,3.3,1.6,3.8,2.9
		c4.4,10.8,8.5,21.6,12.6,32.5c0.4,1,0.6,2.3,0.3,3.3C377.7,569.6,373.8,579.2,369.6,589.6z"/>
	<path class="st0" d="M428.7,612.8c4.7-11,9-21.4,13.6-31.7c0.7-1.6,2.6-3,4.2-3.7c8.2-3.6,16.5-7,24.9-10.2c1.5-0.6,4.3-0.1,5.4,1
		c5.2,4.9,10.2,10,15,15.3c1.1,1.2,1.9,3.2,1.9,4.8c0.1,7,0,14-0.5,21c-0.1,1.5-1.6,3.7-3,4.4c-9.5,4.4-19.1,8.6-28.7,12.6
		c-1.2,0.5-3,0.7-4.1,0.1C448,622.1,438.6,617.5,428.7,612.8z"/>
	<path class="st0" d="M474.9,413.4c-10.8-4.9-21.1-9.5-31.4-14.3c-1.7-0.8-3.4-2.3-4.2-3.9c-4-9.1-7.7-18.4-11.6-27.5
		c-1-2.4-1.2-3.9,1.7-5c8.4-3.1,16.7-6.4,25.2-9.4c1.7-0.6,4-0.6,5.6,0.1c10.2,4.4,20.4,8.9,30.4,13.7c1.1,0.5,2.2,2.4,2.2,3.7
		c0.2,6.3,0.2,12.7,0,19c0,1.2-0.5,2.7-1.3,3.6C486.2,400.1,480.6,406.7,474.9,413.4z"/>
	<path class="st0" d="M428.2,330.6c4.7-11.1,9.1-21.5,13.6-31.8c0.5-1.2,1.7-2.5,2.9-3.1c9.7-4.1,19.6-8.1,28.7-11.8
		c6.2,6,12.2,11.6,17.9,17.4c1.1,1.1,1.9,3.2,1.9,4.8c0.1,7.1,0.1,14.3-0.3,21.4c-0.1,1.4-1.5,3.3-2.7,3.9
		c-9.6,4.4-19.4,8.7-29.1,12.8c-1.1,0.5-2.7,0.6-3.7,0.2C447.7,339.9,438.2,335.3,428.2,330.6z"/>
	<path class="st0" d="M423.6,135.3c-13.2,14.2-25.8,27.7-38.5,41c-0.8,0.9-2.9,1.2-4.2,0.9c-5.7-1.2-11.2-3-16.9-4.1
		c-4.6-0.9-7.1-3.3-8.7-7.6c-2.2-6.1-5-11.9-7.2-18c-0.5-1.3-0.1-3.6,0.9-4.6c7.6-7.7,15.3-15.2,23.1-22.7c0.8-0.8,2.4-1.5,3.4-1.3
		C391.8,122.6,407.5,128.2,423.6,135.3z"/>
	<path class="st0" d="M274.3,215.6c-10.9-4.9-21.7-9.7-32.4-14.6c-1.1-0.5-2.3-1.6-2.8-2.7c-4.5-10.5-8.9-21-13.6-32.1
		c10.3-3.9,20.2-7.8,30.1-11.4c1-0.4,2.6,0.2,3.7,0.7c10,4.4,20,8.8,29.9,13.6c1.4,0.6,2.7,2.9,2.8,4.4c0.3,6,0.2,12,0.1,18
		c0,1.4-0.4,3.1-1.2,4.1C285.6,202.4,280,208.9,274.3,215.6z"/>
	<path class="st0" d="M417.2,616c-1.8,5.3-4.4,9.7-4.3,14c0.1,4.1,3.1,8.2,5.2,13.1c-10.4,1.4-16.8,7.1-18.4,18.1
		c-5.2-2.1-9.3-5-13.7-5.3c-4.1-0.3-8.5,2.1-13.5,3.6c-1.6-9.5-8.1-14.4-18.4-16.6c7.9-9.2,5.3-17.8-0.1-26.4
		c7.9-4.3,18.4-4.3,19-17.3c9.1,7.3,16.9,3.2,25.4-0.9C401,608.2,406.5,615.1,417.2,616z"/>
	<path class="st0" d="M353.3,334.1c8.5-4.1,18.4-4.8,19.3-15.6c4.8,0.9,9,2.6,13,2.2c4-0.4,7.7-2.8,12.3-4.6
		c2.7,9.5,7.7,16.7,19.5,17.5c-5.4,9.2-6.7,17.8,1.4,26.7c-11.1,2.2-18.2,7.4-19.4,18.8c-9.1-4.5-17.5-8.8-26.9-0.7
		c-2-10.5-8.3-15.7-18.6-17.8C361,351.4,359.1,342.8,353.3,334.1z"/>
	<path class="st0" d="M299.3,233c0-11.5-0.1-22.7,0.1-34c0-1.8,1.7-3.9,3.1-5.4c5.5-5.6,11.1-11,16.9-16.3c1.1-1,3.3-1.7,4.7-1.3
		c8.4,2.2,16.7,4.5,24.9,7.2c1.6,0.5,3.2,2.6,3.8,4.2c0.9,2.4,0.9,5.2,1.4,7.8c2.5,15.4,1.9,14.9-8.2,26.5c-7,8-14.2,12.4-25.1,11.1
		c-6.5-0.8-13.3,0.3-19.9,0.6C300.6,233.5,300.3,233.3,299.3,233z"/>
	<path class="st0" d="M343.4,364.6c-4.2,9.2-8,17.7-12,26c-0.6,1.3-2.1,2.5-3.5,3c-11.4,4.5-22.9,8.9-34.4,13.1
		c-1.3,0.5-3.7,0-4.6-0.9c-3.9-4.1-7.7-8.3-10.9-12.9c-1.6-2.3-2.5-5.6-2.5-8.5c0-5.3,0.8-10.6,1.7-15.8c0.3-1.6,1.6-3.6,3-4.2
		c9.5-4.5,19-8.7,28.6-12.9c1.1-0.5,2.7-0.8,3.7-0.4C322.7,355.5,332.8,360,343.4,364.6z"/>
	<path class="st0" d="M343.9,646.9c-4.3,9.3-8.2,18.2-12.5,27c-0.5,1.1-2.2,1.8-3.6,2.3c-8.4,3.2-16.8,6.4-25.2,9.4
		c-7.8,2.8-14.5,0.2-20.3-5.3c-6.5-6.2-7.6-13-5.6-21.1c0.1-0.3,0.2-0.7,0.2-1c-1.9-9,3.4-12.4,10.8-15.1c7.3-2.6,14.3-6.3,21.4-9.4
		c1.1-0.5,2.7-0.8,3.7-0.4C323.1,637.7,333.2,642.2,343.9,646.9z"/>
	<path class="st0" d="M344.1,328.4c-10,4.1-19.4,7.9-28.8,11.6c-1.3,0.5-3.2,0.4-4.6-0.1c-10-4-19.9-8.3-29.9-12.2
		c-3-1.2-3.8-2.8-3.8-5.9c0-19.5,0-19.4,13.7-33.5c3.5-3.5,6.1-4.6,10.9-2c8.3,4.5,17.1,8,25.7,12c1.4,0.7,3.2,1.5,3.9,2.8
		C335.6,309.9,339.7,319,344.1,328.4z"/>
	<path class="st0" d="M344.6,610.7c-10.3,4.1-20,8.1-29.7,11.8c-0.9,0.4-2.3,0.2-3.2-0.2c-10.3-4.2-20.5-8.6-30.8-12.7
		c-2.7-1.1-3.6-2.6-3.3-5.3c0-0.2,0-0.3,0-0.5c-0.2-20.5,0.7-22.7,16.9-36.1c1-0.8,3.1-1.2,4.3-0.7c10.2,4.5,20.2,9.2,30.3,13.9
		c0.9,0.4,2,0.9,2.3,1.7C335.8,591.9,340.1,601.2,344.6,610.7z"/>
	<path class="st0" d="M363.9,491.1c-6.6,6.2-14.3,13.4-22,20.4c-1.1,1-3,1.5-4.5,1.5c-8.2,0.1-16.3,0-24.5,0.1
		c-4.1,0-7.1-1.5-8.8-5.2c-0.8-1.7-1.9-3.2-2.6-4.8c-2.1-5-6.5-10.6-5.5-14.9c1.6-6.8,6.7-12.8,10.6-19c0.6-0.9,2.6-1.4,3.9-1.4
		c9.5-0.2,19-0.3,28.5-0.2c1.5,0,3.5,0.5,4.5,1.5C350.3,476.2,357,483.6,363.9,491.1z"/>
	<path class="st0" d="M524.5,332.4c-6.9-7.5-13.9-15-20.8-22.6c-1-1.1-1.6-2.9-1.6-4.4c-0.1-8.5-0.4-17,0.1-25.4
		c0.2-2.6,2.5-5.4,4.4-7.6c1.2-1.4,3.4-2.1,5.2-2.8c5-2.1,10.6-6.4,14.9-5.4c6.8,1.5,12.9,6.5,19.1,10.3c0.9,0.6,1.3,2.6,1.3,3.9
		c0.1,9.7,0.1,19.3,0,29c0,1.5-0.5,3.5-1.5,4.5C538.9,318.5,532,325.1,524.5,332.4z"/>
	<path class="st0" d="M270.1,265.1c-0.8,10.8-1.5,20.9-2.2,31c0,0.5,0,1.1-0.3,1.5c-5.6,7-11.3,14-17,20.8c-0.5,0.6-1.8,0.7-2.7,0.6
		c-8-1.4-16-2.7-24-4.5c-1.6-0.3-3.5-2.4-3.9-4c-2.1-8.2-3.9-16.4-5.6-24.7c-0.3-1.3,0.5-3.2,1.4-4.2c2.2-2.5,5.2-4.2,7.2-6.9
		c6.5-8.7,15.1-10.8,25.4-9.8C255.3,265.7,262.3,265.1,270.1,265.1z"/>
	<path class="st0" d="M557.4,492.3c-4,6.4-13.3,9.1-9.3,19.7c-11.9-2.5-15.9,6.9-22.7,12.3c-6.6-4.4-9.7-15.4-22.3-10.9
		c4.3-11.3-3.8-16-9.1-22.5c4.5-6.4,13.8-10.7,9-22.2c12.1,3.6,16.1-5.6,22.2-11.4c6.9,5.2,10.8,15.1,22.6,12.2
		C545.1,480,548.9,487.3,557.4,492.3z"/>
	<path class="st0" d="M469.4,467.7c-2.5,11.1,7.2,15.7,11.6,23.6c-7,4.8-15.1,9.2-11,21.1c-3.8,0-6.5-0.1-9.3,0
		c-7.1,0.2-14.3,0.7-21.4,0.6c-2.2,0-4.9-0.9-6.6-2.3c-7.6-5.9-14.9-12.1-22.5-18.4c7.4-7.9,14.4-15.5,21.6-22.9
		c0.9-0.9,2.5-1.7,3.8-1.7C446.5,467.6,457.4,467.7,469.4,467.7z"/>
	<path class="st0" d="M522.7,377.9c7.8,7.3,15.3,14.2,22.6,21.2c0.9,0.8,1.8,2.2,1.8,3.3c0.1,11.4,0.1,22.9,0.1,35.1
		c-11-2.8-15.6,6.8-23.4,11.1c-4.7-7.1-9.4-14.7-21.4-10.3c0-8.2,0.6-15.4-0.1-22.3c-0.9-9,0.6-16.4,7.6-22.8
		C514.6,388.8,518.3,383.3,522.7,377.9z"/>
	<path class="st0" d="M594.9,385.7c0.2,15.7,0.2,15.7-10.6,20c-5.6,2.2-11.1,4.5-16.8,6.3c-1.4,0.4-3.9-0.2-4.9-1.3
		c-3.9-4.1-7.1-8.9-11-12.8c-2.5-2.5-2.6-5.1-2.3-8.1c0.5-5.3,1-10.6,1.8-15.8c0.2-1.5,1.4-3.5,2.6-4.1c9.8-4.6,19.6-9,29.6-13.3
		c3.7-1.6,9.1,1.8,9.5,5.8C593.7,371.7,594.5,381,594.9,385.7z"/>
	<path class="st0" d="M216.9,136.9c-7.2,8.8-5.6,17.1,0.5,25.4c-4.8,1.9-9.9,2.7-13,5.6c-3.1,2.9-4.3,8-6.6,12.9
		c-8.2-4.2-16.8-8.1-26.3-0.1c-1.6-11-8.1-15.8-17.5-17.8c2.2-6.5,4.1-12.1,10.7-15c10.3-4.6,20.3-9.9,30.4-14.9
		c3.8-1.9,7.4-2.9,11.5-0.3C209.4,134.4,212.7,135.3,216.9,136.9z"/>
	<path class="st0" d="M523.5,533.6c1.3,1.6,2.5,2.8,3.3,4.3c3.2,5.5,7.4,8.7,14.2,7.3c3.2-0.7,3.6,1.3,4,4.1
		c1,8.3-1.4,15.1-6.9,21.4c-7.2,8.2-13.9,17-21.3,26c-5.6-5.3-10.8-10.1-15.9-14.9c-0.4-0.4-0.8-1.2-0.8-1.7c0-11.4,0-22.9,0-35
		C511,547.8,515.7,538.1,523.5,533.6z"/>
	<path class="st0" d="M228.3,133.2c-0.1-0.9-0.1-1.1-0.1-1.2c1.6-8.8,6.5-13.5,15.8-14.6c16.1-2,32-4.9,48.4-7.4
		c0,7.9,0.2,14.4-0.2,20.8c-0.1,1.1-1.9,2.6-3.2,3.2c-9.5,4.3-19.1,8.5-28.8,12.5c-1.1,0.5-2.7,0.6-3.7,0.1
		C247.1,142.2,237.7,137.6,228.3,133.2z"/>
	<path class="st0" d="M546.4,238.7c-6.3,4.7-12.1,9.2-18.3,13.4c-1,0.7-3.2,0.3-4.4-0.4c-6.5-3.7-12.9-7.5-19.2-11.5
		c-1.1-0.7-2.3-2.2-2.3-3.3c0.1-15.8,0.3-31.6,0.6-47.4c0-0.3,0.3-0.5,0.7-1.3C519.9,203.3,534,220.1,546.4,238.7z"/>
	<path class="st0" d="M551.2,317.6c-1.9-6.7,1.5-12.6,7.7-17.6c2.8-2.3,5-5.3,7.6-7.9c4-4.1,6.8-3.7,8.6,1.7
		c4.2,12.4,8,25,11.8,37.5c1.1,3.5,1.7,7.1,2.3,10.7c0.6,3.8-0.7,4.7-4.3,3.2c-9.7-4-19.3-8.1-29.1-11.9c-3.6-1.4-5.4-3.3-4.8-7.3
		C551.5,323.7,551.2,321.3,551.2,317.6z"/>
	<path class="st0" d="M218.2,673.5c-0.6-5.8,0.6-8.9,6.1-9.8c7.7-1.2,15.2-3.4,22.9-4.8c1.5-0.3,3.7,0.4,4.7,1.5
		c4.7,4.9,9.4,9.9,13.6,15.2c1.6,2,2.1,5,3.1,7.5c-0.5,0.5-1,1.1-1.5,1.6C250.7,681,234.4,677.2,218.2,673.5z"/>
	<path class="st0" d="M89.6,207.9c12.2-11.2,24.3-22.5,36.6-33.6c3.1-2.8,6.4-5.3,9.9-7.5c1.5-1,3.8-0.7,7.1-1.2
		c-4.7,10.4-8.7,19.2-12.7,27.9c-0.4,0.8-1.3,1.6-2.1,1.9c-12.5,4.8-25,9.5-37.6,14.3C90.4,209.2,90,208.5,89.6,207.9z"/>
	<path class="st0" d="M273.5,260c0-7.8,0-15.4,0-23.3c8.1,0,16,0,24.2,0c0,7.7,0,15.3,0,23.3C289.9,260,282,260,273.5,260z"/>
	<path class="st0" d="M466.1,639.2c-11.1,6.4-22.3,12.7-34,19.4c-1.9-4.3-3.5-8-5.4-12.3c10.4-4,20.3-8.1,30.4-11.3
		c2.4-0.8,5.8,1.6,8.7,2.5C465.9,638.1,466,638.7,466.1,639.2z"/>
	<path class="st0" d="M576.5,470.5c3.8,0,6.2,0,9.7,0c-3.5,11-6.9,21.7-10.6,33.3c-3.7-4.6-6.7-8.2-10.1-12.3
		C573.1,486.6,580.5,481.8,576.5,470.5z"/>
	<path class="st0" d="M337.9,683.3c9.8-4.8,19.7-9.6,30-14.6c1.4,3.6,2.6,6.8,4.2,10.9c-11.4,1.9-22.4,3.8-33.4,5.6
		C338.4,684.6,338.1,683.9,337.9,683.3z"/>
	<path class="st0" d="M115.8,615.7c-13.6-14.8-27.3-29.6-40.9-44.5c0.6-0.5,1.1-1.1,1.7-1.6c13,15.4,31,26.2,41.2,44.1
		C117.2,614.4,116.5,615,115.8,615.7z"/>
	<path class="st0" d="M315.7,110.5c4.5,0.4,7.9,0.6,11.6,0.9C321.7,116.1,321.2,116.1,315.7,110.5z"/>
</g>
</svg>
