<svg id="Layer_1" data-name="Layer 1" xmlns="http://www.w3.org/2000/svg" viewBox="0 0 1272 950"><defs><style>.cls-1{fill:none;stroke:red;stroke-linecap:round;stroke-miterlimit:10;stroke-width:0.25px;}</style></defs><title>hex312</title><polygon class="cls-1" points="497.31 530.5 497.31 565.5 467 583 436.69 565.5 436.69 530.5 467 513 497.31 530.5"/><line class="cls-1" x1="739.8" y1="530.5" x2="770.11" y2="513"/><line class="cls-1" x1="709.49" y1="513" x2="739.8" y2="530.5"/><line class="cls-1" x1="72.96" y1="355.5" x2="72.96" y2="320.5"/><line class="cls-1" x1="709.49" y1="478" x2="709.49" y2="513"/><polygon class="cls-1" points="679.18 565.5 648.87 583 618.55 565.5 618.55 530.5 648.87 513 679.18 530.5 679.18 565.5"/><polygon class="cls-1" points="861.04 460.5 891.35 478 891.35 513 861.04 530.5 830.73 513 830.73 478 861.04 460.5"/><line class="cls-1" x1="770.11" y1="513" x2="770.11" y2="478"/><line class="cls-1" x1="770.11" y1="478" x2="739.8" y2="460.5"/><polygon class="cls-1" points="315.45 845.5 315.45 880.5 345.76 898 376.07 880.5 406.38 898 436.69 880.5 436.69 845.5 406.38 828 406.38 793 376.07 775.5 345.76 793 315.45 775.5 285.13 793 285.13 828 315.45 845.5"/><polygon class="cls-1" points="376.07 425.5 376.07 460.5 406.38 478 436.69 460.5 436.69 425.5 406.38 408 376.07 425.5"/><polygon class="cls-1" points="194.2 775.5 224.51 793 254.82 775.5 254.82 740.5 224.51 723 194.2 740.5 194.2 775.5"/><line class="cls-1" x1="739.8" y1="460.5" x2="709.49" y2="478"/><polygon class="cls-1" points="224.51 408 194.2 425.5 194.2 460.5 224.51 478 224.51 513 254.82 530.5 285.13 513 285.13 478 254.82 460.5 254.82 425.5 285.13 408 285.13 373 254.82 355.5 224.51 373 224.51 408"/><polygon class="cls-1" points="163.89 688 194.2 670.5 194.2 635.5 163.89 618 133.58 635.5 133.58 670.5 163.89 688"/><polygon class="cls-1" points="861.04 320.5 861.04 355.5 830.73 373 800.42 355.5 800.42 320.5 830.73 303 861.04 320.5"/><polygon class="cls-1" points="618.55 320.5 648.87 303 679.18 320.5 679.18 355.5 709.49 373 709.49 408 679.18 425.5 648.87 408 618.55 425.5 588.24 408 557.93 425.5 527.62 408 527.62 373 557.93 355.5 557.93 320.5 588.24 303 618.55 320.5"/><polygon class="cls-1" points="739.8 740.5 709.49 723 679.18 740.5 679.18 775.5 709.49 793 739.8 775.5 739.8 740.5"/><polygon class="cls-1" points="951.97 163 921.66 145.5 921.66 110.5 951.97 93 982.29 110.5 982.29 145.5 951.97 163"/><polyline class="cls-1" points="42.65 933 42.65 898 72.96 880.5 72.96 845.5 103.27 828 103.27 793 72.96 775.5 72.96 740.5 103.27 723 103.27 688 72.96 670.5 42.65 688 12.34 670.5"/><polyline class="cls-1" points="1012.6 933 1012.6 898 982.29 880.5 982.29 845.5 951.97 828 951.97 793 921.66 775.5 921.66 740.5 891.35 723 891.35 688 861.04 670.5 830.73 688 830.73 723 861.04 740.5 861.04 775.5 891.35 793 891.35 828 861.04 845.5 830.73 828 800.42 845.5 770.11 828 739.8 845.5 739.8 880.5 709.49 898 679.18 880.5 648.87 898 618.55 880.5 588.24 898 588.24 933"/><polyline class="cls-1" points="618.55 5.5 618.55 40.5 588.24 58 588.24 93 557.93 110.5 527.62 93 497.31 110.5 497.31 145.5 527.62 163 527.62 198 497.31 215.5 497.31 250.5 527.62 268 557.93 250.5 557.93 215.5 588.24 198 618.55 215.5 618.55 250.5 648.87 268 679.18 250.5 679.18 215.5 709.49 198 739.8 215.5 770.11 198 800.42 215.5 800.42 250.5 830.73 268 861.04 250.5 861.04 215.5 891.35 198 891.35 163 861.04 145.5 830.73 163 800.42 145.5 800.42 110.5 770.11 93 770.11 58 800.42 40.5 830.73 58 861.04 40.5 891.35 58 921.66 40.5 951.97 58 982.29 40.5 1012.6 58 1042.91 40.5 1073.22 58 1073.22 93 1103.53 110.5 1103.53 145.5 1073.22 163 1042.91 145.5 1012.6 163 1012.6 198 982.29 215.5 982.29 250.5 951.97 268 951.97 303 982.29 320.5 1012.6 303 1042.91 320.5 1042.91 355.5 1073.22 373 1103.53 355.5 1133.84 373 1133.84 408 1103.53 425.5 1073.22 408 1042.91 425.5 1012.6 408 982.29 425.5 982.29 460.5 1012.6 478 1012.6 513 1042.91 530.5 1042.91 565.5 1073.22 583 1073.22 618 1042.91 635.5 1042.91 670.5 1012.6 688 1012.6 723 1042.91 740.5 1042.91 775.5 1073.22 793 1073.22 828 1103.53 845.5 1103.53 880.5 1133.84 898 1164.15 880.5 1194.46 898 1194.46 933"/><polyline class="cls-1" points="12.34 425.5 42.65 408 42.65 373 72.96 355.5 72.96 320.5 42.65 303 42.65 268 72.96 250.5 72.96 215.5 103.27 198 133.58 215.5 163.89 198 194.2 215.5 194.2 250.5 224.51 268 254.82 250.5 254.82 215.5 285.13 198 285.13 163 315.45 145.5 345.76 163 376.07 145.5 376.07 110.5 345.76 93 315.45 110.5 285.13 93 285.13 58 315.45 40.5 345.76 58 376.07 40.5 406.38 58 436.69 40.5 436.69 5.5"/></svg>