<svg id="Make2D::visible::lines" xmlns="http://www.w3.org/2000/svg" viewBox="0 0 1787.39 1819.84"><defs><style>.cls-1{fill:none;stroke:#000;stroke-linecap:round;stroke-linejoin:round;}</style></defs><title>hexagonspentagons</title><rect class="cls-1" x="0.5" y="0.5" width="1728" height="864"/><polyline class="cls-1" points="211.24 522.67 64.64 607.31 64.64 776.59 211.24 861.23 357.84 776.59"/><polyline class="cls-1" points="211.24 353.38 211.24 522.67 357.84 607.31"/><line class="cls-1" x1="357.84" y1="268.74" x2="504.45" y2="353.39"/><polyline class="cls-1" points="651.05 99.46 504.44 14.82 357.84 99.46"/><polyline class="cls-1" points="651.05 268.74 504.44 353.38 504.44 522.67"/><polyline class="cls-1" points="651.05 607.31 504.44 522.67 357.84 607.31 357.84 776.59 504.44 861.23 651.05 776.59"/><polyline class="cls-1" points="797.65 522.67 651.05 607.31 651.05 776.59 797.65 861.23 944.25 776.59"/><polyline class="cls-1" points="944.25 99.46 797.65 14.82 651.05 99.46 651.05 268.74 797.65 353.38"/><polyline class="cls-1" points="944.25 268.74 797.65 353.38 797.65 522.67 944.25 607.31"/><polyline class="cls-1" points="1090.86 522.67 944.25 607.31 944.25 776.59 1090.86 861.23 1237.46 776.59"/><polyline class="cls-1" points="1090.86 353.38 1090.86 522.67 1237.46 607.31"/><polyline class="cls-1" points="1237.46 99.46 1090.86 14.82 944.25 99.46 944.25 268.74 1090.86 353.38 1237.46 268.74"/><line class="cls-1" x1="1530.66" y1="268.74" x2="1530.66" y2="99.46"/><polyline class="cls-1" points="1530.66 99.46 1384.06 14.82 1237.46 99.46 1237.46 268.74 1384.06 353.38"/><polyline class="cls-1" points="1530.66 607.31 1677.27 522.67 1677.27 353.38"/><polyline class="cls-1" points="1677.27 353.38 1530.66 268.74 1384.06 353.38 1384.06 522.67"/><polygon class="cls-1" points="1530.66 607.31 1384.06 522.67 1237.46 607.31 1237.46 776.59 1384.06 861.23 1530.66 776.59 1530.66 607.31"/><polygon class="cls-1" points="357.84 99.46 211.24 14.82 64.64 99.46 64.64 268.74 211.24 353.38 357.84 268.74 357.84 99.46"/><polygon class="cls-1" points="137.34 1694.6 298.34 1746.91 397.84 1609.96 298.34 1473 137.34 1525.32 137.34 1694.6"/><polyline class="cls-1" points="409.03 1521.68 397.84 1525.32 397.84 1694.6"/><polyline class="cls-1" points="397.84 1694.6 558.84 1746.91 658.34 1609.96 558.84 1473"/><polyline class="cls-1" points="669.53 1521.68 658.34 1525.32 658.34 1694.6"/><polyline class="cls-1" points="658.34 1694.6 819.34 1746.91 918.84 1609.96 819.34 1473"/><polyline class="cls-1" points="930.03 1521.68 918.84 1525.32 918.84 1694.6"/><polyline class="cls-1" points="918.84 1694.6 1079.84 1746.91 1179.34 1609.96 1079.84 1473"/><polyline class="cls-1" points="1190.52 1521.68 1179.34 1525.32 1179.34 1694.6"/><polyline class="cls-1" points="1179.34 1694.6 1340.34 1746.91 1439.84 1609.96 1340.34 1473"/><polyline class="cls-1" points="1451.02 1521.68 1439.84 1525.32 1439.84 1694.6"/><polyline class="cls-1" points="1439.84 1694.6 1600.83 1746.91 1700.34 1609.96 1600.83 1473"/><polyline class="cls-1" points="409.03 1247.78 309.53 1384.73 409.03 1521.68 570.03 1469.37 570.03 1300.09"/><polyline class="cls-1" points="669.53 1247.78 570.03 1384.73 669.53 1521.68 830.52 1469.37 830.52 1300.09"/><polyline class="cls-1" points="930.03 1247.78 830.52 1384.73 930.03 1521.68 1091.02 1469.37 1091.02 1300.09"/><polyline class="cls-1" points="1190.52 1247.78 1091.02 1384.73 1190.52 1521.68 1351.52 1469.37 1351.52 1300.09"/><polyline class="cls-1" points="1451.02 1247.78 1351.52 1384.73 1451.02 1521.68 1612.02 1469.37 1612.02 1300.09"/><polygon class="cls-1" points="1451.02 1247.78 1612.02 1300.09 1711.52 1163.13 1612.02 1026.18 1451.02 1078.49 1451.02 1247.78"/><polygon class="cls-1" points="1190.52 1247.78 1351.52 1300.09 1451.02 1163.13 1351.52 1026.18 1190.52 1078.49 1190.52 1247.78"/><polygon class="cls-1" points="930.03 1247.78 1091.02 1300.09 1190.52 1163.13 1091.02 1026.18 930.03 1078.49 930.03 1247.78"/><polygon class="cls-1" points="669.53 1247.78 830.52 1300.09 930.03 1163.13 830.52 1026.18 669.53 1078.49 669.53 1247.78"/><polygon class="cls-1" points="409.03 1247.78 570.03 1300.09 669.53 1163.13 570.03 1026.18 409.03 1078.49 409.03 1247.78"/><polygon class="cls-1" points="148.53 1247.78 309.53 1300.09 409.03 1163.13 309.53 1026.18 148.53 1078.49 148.53 1247.78"/><rect class="cls-1" x="58.89" y="955.34" width="1728" height="864"/></svg>